<?xml version="1.0" standalone="no"?><!DOCTYPE svg PUBLIC "-//W3C//DTD SVG 1.1//EN" "http://www.w3.org/Graphics/SVG/1.1/DTD/svg11.dtd"><svg t="1756714835372" class="icon" viewBox="0 0 1385 1024" version="1.1" xmlns="http://www.w3.org/2000/svg" p-id="13437" xmlns:xlink="http://www.w3.org/1999/xlink" width="21.640625" height="16"><path d="M123.610622 47.812555c30.448859 54.93444 31.472856 117.7898 24.621111 151.190181-74.571093-43.068119-47.088814-107.851004-24.606052-151.190181z m209.226731-39.484129c29.259215-8.222096 57.313728-10.480913 78.155084-6.219277-47.043638 59.994191-183.400918 126.102249-215.717066 136.884337 4.005636-66.168292 73.185685-112.59452 137.561982-130.66506zM7.959169 205.14672c44.453527 34.921318 60.536308 60.12972 75.384268 106.962535 14.637137-45.236584 43.143413-86.828943 90.382815-135.73987-25.102991 54.31703-52.284095 101.225139-61.183835 171.293657 50.898686-45.402231 85.564005-53.308092 155.40664-54.603147-36.758489 37.722251-102.475018 74.646387-157.695575 77.402144-2.409405 37.61684 0.632469 82.055308 10.872441 136.643397 45.53776-47.826695 90.20211-104.131484 155.707816-121.75026 88.274586-23.732642 214.843657 36.924136 274.702319 83.952715 14.576902-240.639352 187.180672-302.817067 370.566532-383.667673-94.102335 119.973324-55.792791 204.362744-47.932106 233.817723 243.244521-33.837085 390.353772-73.396508 477.604361-159.969451 40.327421 210.085081-194.107713 462.138991-387.116134 495.132784 22.467704 29.018275 63.743828 65.234648 86.316944 90.729168L1385.536636 876.331736 1188.462343 1023.998162l-164.878615-145.046198c-363.850314 113.603459-519.829188 60.852542-661.261278-232.522668-27.256397-55.220557-147.12431-94.614333-232.357021-98.785616a1341.647211 1341.647211 0 0 0 29.31945 106.013832l-59.858662-47.013521c-4.126107-20.991943-7.258333-39.710011-10.631501-58.292548a124.837311 124.837311 0 0 0-16.338779 3.418343c4.924222-3.704461 9.803268-7.679979 14.576902-11.821144-13.598081-76.34803-20.178769-134.068345-13.583023-183.732211-68.065699-42.31518-85.62424-112.23311-65.475588-151.069711z m222.222461-42.480827c32.933558-7.785391 64.797943 2.800934 113.226989-0.361411-2.2287 48.775398-76.34803 67.794641-177.332229 40.779184 24.244641-24.274758 44.333057-35.749551 64.10524-40.417773z m28.566511 274.898083c-16.248427 4.367047-26.774516 17.799481-23.521819 29.997096 3.252697 12.197614 19.064419 18.537362 35.327905 14.170315 16.248427-4.367047 26.774516-17.799481 23.521819-29.997096-3.267756-12.197614-19.079478-18.537362-35.327905-14.170315z" p-id="13438"></path></svg>